<?xml version="1.0" encoding="utf-8"?>
<!-- Generator: Adobe Illustrator 26.0.3, SVG Export Plug-In . SVG Version: 6.00 Build 0)  -->
<svg version="1.1" id="Layer_1" xmlns="http://www.w3.org/2000/svg" xmlns:xlink="http://www.w3.org/1999/xlink" x="0px" y="0px"
	 viewBox="0 0 141.73 141.73" style="enable-background:new 0 0 141.73 141.73;" xml:space="preserve">
<style type="text/css">
	.st0{fill:#EBEBEB;}
	.st1{fill:#FFFFFF;}
</style>
<g>
	<path class="st0" d="M66.34,72.7c1.32-1.15,0.6-2.65-0.18-3.67c-0.44-0.56-0.88-0.97-1.02-1.09l-5.64,4.73l3.43,2.88L66.34,72.7z"
		/>
	<path class="st1" d="M51.57,85.09L51.57,85.09l14.27,11.97c0.14,0.14,0.32,0.26,0.51,0.35c0.19,0.09,0.41,0.13,0.63,0.13
		c0.22,0,0.43-0.04,0.62-0.13c0.19-0.08,0.36-0.2,0.51-0.35c0.15-0.15,0.26-0.32,0.35-0.51c0.08-0.19,0.13-0.4,0.13-0.62v-6.31
		v-6.31c0-0.92-0.19-1.78-0.52-2.56c-0.33-0.78-0.81-1.5-1.41-2.09l-22.64-19c-0.14-0.15-0.32-0.27-0.51-0.35
		c-0.19-0.08-0.4-0.13-0.62-0.13c-0.22,0-0.44,0.05-0.62,0.13c-0.19,0.08-0.37,0.19-0.51,0.35c-0.15,0.14-0.26,0.31-0.35,0.51
		c-0.08,0.19-0.13,0.41-0.13,0.63v12.61c0,0.91,0.18,1.77,0.52,2.56c0.33,0.78,0.82,1.5,1.41,2.09l4.94,4.14l0,0L51.57,85.09z"/>
	<path class="st0" d="M48.14,82.21L48.14,82.21l-4.61,3.87c-0.49,0.43-0.7,0.89-0.74,1.37c0,0,0,0,0,0c0,0.06,0,0.14,0,0.2
		c0.01,0.04,0.01,0.08,0.01,0.11c0.01,0.04,0.01,0.08,0.02,0.11c0.01,0.03,0.01,0.06,0.02,0.09c0.03,0.13,0.06,0.27,0.11,0.41
		c0.01,0.02,0.02,0.04,0.02,0.06c0.05,0.14,0.11,0.27,0.18,0.4c0.01,0.02,0.02,0.03,0.03,0.06c0.07,0.13,0.15,0.26,0.23,0.39
		c0.01,0.02,0.02,0.02,0.03,0.03c0.09,0.13,0.19,0.27,0.28,0.39c0.1,0.12,0.19,0.24,0.28,0.34c0.02,0.03,0.05,0.05,0.06,0.07
		c0.08,0.09,0.17,0.18,0.24,0.26c0.24,0.24,0.42,0.4,0.46,0.44l6.83-5.73h0.01L48.14,82.21z"/>
	<path class="st1" d="M68.07,111.31c-0.34-0.79-0.82-1.5-1.42-2.09c0,0-21.93-18.41-21.94-18.41c-0.07-0.06-0.21-0.19-0.4-0.39
		c-0.01-0.01-0.02-0.02-0.03-0.03c-0.07-0.08-0.16-0.16-0.24-0.26c-0.02-0.02-0.04-0.04-0.06-0.07c-0.09-0.1-0.18-0.22-0.28-0.34
		c-0.09-0.12-0.19-0.25-0.28-0.39c-0.01-0.01-0.01-0.02-0.03-0.03c-0.08-0.13-0.15-0.26-0.23-0.39c-0.01-0.02-0.02-0.04-0.03-0.06
		c-0.07-0.13-0.13-0.26-0.18-0.4c-0.01-0.02-0.02-0.04-0.02-0.06c-0.05-0.13-0.08-0.27-0.11-0.41c0-0.01-0.01-0.03-0.01-0.04
		c0-0.01-0.01-0.03-0.01-0.05c-0.01-0.03-0.01-0.07-0.02-0.11c-0.01-0.03-0.01-0.07-0.01-0.11c0-0.07,0-0.14,0-0.2c0,0,0,0,0,0
		c0.04-0.48,0.25-0.94,0.74-1.37l-0.19,0.16c-0.04,0.03-0.07,0.07-0.11,0.11c-0.26,0.26-0.63,0.72-0.96,1.47c0,0,0,0.01-0.01,0.02
		c-0.39,0.87-0.76,2.11-0.91,3.85c-0.02,0.2-0.03,0.42-0.05,0.64c-0.01,0.22-0.02,0.45-0.02,0.68c0,0.06-0.01,14.8-0.01,14.8
		c0,0.91,0.18,1.77,0.52,2.55c0.34,0.79,0.81,1.49,1.4,2.09l22.65,19c0.14,0.14,0.32,0.27,0.5,0.34c0.2,0.08,0.41,0.13,0.63,0.13
		c0.22,0,0.43-0.04,0.62-0.13c0.19-0.08,0.36-0.2,0.51-0.34c0.14-0.15,0.26-0.32,0.35-0.51c0.08-0.19,0.12-0.4,0.12-0.63v-16.43
		C68.58,112.96,68.4,112.09,68.07,111.31z"/>
	<path class="st1" d="M68.06,48.4c-0.33-0.79-0.81-1.49-1.41-2.09l-22.64-19c-0.14-0.14-0.32-0.26-0.51-0.34
		c-0.19-0.08-0.4-0.12-0.62-0.12c-0.22,0-0.44,0.04-0.63,0.12c-0.19,0.08-0.36,0.2-0.51,0.34c-0.15,0.15-0.26,0.32-0.35,0.51
		c-0.08,0.19-0.13,0.4-0.13,0.62v8.21v8.21c0,0.92,0.18,1.78,0.52,2.57c0.33,0.79,0.82,1.5,1.41,2.09c0,0,21.93,18.41,21.95,18.41
		c0.06,0.06,0.21,0.19,0.4,0.38c0.17,0.19,0.4,0.43,0.62,0.71c0.39,0.51,0.76,1.14,0.87,1.78c0.11,0.65-0.04,1.31-0.7,1.89
		c0,0,0.68-0.49,1.24-1.76c0,0,0.01-0.01,0.01-0.02c0.4-0.87,0.76-2.11,0.91-3.85c0.02-0.21,0.03-0.42,0.04-0.64
		c0.01-0.22,0.02-0.44,0.03-0.68c0-0.06,0-3.76,0-7.45c0.01-3.68,0.01-7.35,0.01-7.35C68.58,50.04,68.4,49.18,68.06,48.4z"/>
	<path class="st0" d="M75.48,97.32v11.51l4.42-3.7V93.66l-0.29,0.24l-3.73,3.14C75.76,97.16,75.63,97.25,75.48,97.32z"/>
	<path class="st0" d="M79.9,65.1l-0.23,0.2l-3.8,3.19c-0.11,0.11-0.23,0.19-0.36,0.26l-0.03,0.03v9.5l4.42-3.71V65.1z"/>
	<path class="st1" d="M99.54,69.18c0.53-0.72,0.92-1.58,0.92-2.76V28.36c0-0.22-0.05-0.43-0.13-0.63c-0.08-0.19-0.19-0.37-0.34-0.51
		c-0.14-0.15-0.32-0.27-0.51-0.35c-0.19-0.08-0.41-0.13-0.63-0.13s-0.43,0.05-0.62,0.13c-0.2,0.08-0.36,0.2-0.51,0.35L75.06,46.24
		c-0.59,0.59-1.08,1.3-1.41,2.09c-0.33,0.78-0.52,1.65-0.52,2.55v16.46c0,0.22,0.04,0.43,0.13,0.62c0.08,0.2,0.19,0.37,0.34,0.51
		c0.14,0.15,0.32,0.26,0.51,0.35c0.19,0.08,0.4,0.13,0.63,0.13c0.22,0,0.43-0.04,0.63-0.13c0.05-0.02,0.1-0.06,0.15-0.09
		c0.13-0.07,0.25-0.16,0.36-0.26l3.8-3.19l13.48-11.32c0.15-0.15,0.32-0.26,0.51-0.35c0.19-0.09,0.4-0.13,0.63-0.13
		c0.22,0,0.43,0.04,0.62,0.12c0.2,0.08,0.37,0.2,0.51,0.35c0.15,0.15,0.27,0.32,0.35,0.51c0.09,0.19,0.13,0.4,0.13,0.63v3
		c0,0.91-0.18,1.78-0.52,2.56c-0.33,0.79-0.81,1.5-1.41,2.09L79.9,74.56l0,0l-4.42,3.71l0,0l-0.43,0.36
		c-0.59,0.6-1.08,1.3-1.41,2.09c-0.33,0.78-0.51,1.65-0.51,2.56v12.63c0,0.22,0.04,0.43,0.13,0.63c0.08,0.19,0.2,0.36,0.34,0.51
		c0.14,0.14,0.32,0.26,0.51,0.34c0.19,0.08,0.4,0.12,0.63,0.12c0.22,0,0.43-0.04,0.63-0.12c0.04-0.02,0.07-0.04,0.12-0.06
		c0.14-0.07,0.28-0.16,0.4-0.28l3.73-3.14l13.54-11.36c0.15-0.15,0.32-0.27,0.51-0.35c0.19-0.09,0.4-0.14,0.63-0.14
		c0.22,0,0.43,0.05,0.62,0.13c0.2,0.08,0.37,0.2,0.52,0.34c0.14,0.15,0.26,0.32,0.34,0.51c0.09,0.19,0.13,0.41,0.13,0.63v4.99
		c0,0.91-0.18,1.77-0.52,2.57c-0.33,0.79-0.81,1.5-1.41,2.1l-18.91,15.87c-0.59,0.59-1.08,1.31-1.41,2.09
		c-0.33,0.78-0.51,1.65-0.51,2.55v16.46c0,0.22,0.04,0.43,0.13,0.63c0.08,0.19,0.2,0.37,0.34,0.51c0.14,0.14,0.32,0.27,0.51,0.34
		c0.19,0.08,0.4,0.13,0.63,0.13c0.22,0,0.43-0.04,0.63-0.13c0.19-0.07,0.36-0.2,0.51-0.34l22.65-19.02c0.6-0.6,1.08-1.31,1.41-2.1
		c0.33-0.79,0.52-1.66,0.52-2.57V72.02c-0.02-0.18-0.07-0.36-0.15-0.51c-0.08-0.16-0.19-0.3-0.31-0.43
		c-0.14-0.15-0.32-0.26-0.51-0.34c-0.19-0.08-0.4-0.13-0.62-0.13c-0.22,0-0.43,0.04-0.62,0.11c-0.19,0.08-0.35,0.17-0.35,0.17
		C98.49,70.3,99,69.89,99.54,69.18z"/>
	<path class="st1" d="M68.51,19.12c-0.05-0.1-0.11-0.19-0.2-0.26l-10.59-8.85c-0.06-0.06-0.14-0.11-0.23-0.14
		c-0.08-0.03-0.16-0.04-0.25-0.04c-0.06,0-0.11,0-0.16,0.01c-0.06,0.02-0.11,0.03-0.16,0.06c-0.13,0.06-0.25,0.16-0.32,0.28
		c-0.07,0.12-0.12,0.26-0.12,0.41v6.64c0,0.11,0.03,0.22,0.07,0.32c0.05,0.1,0.12,0.19,0.2,0.26l3.35,2.75v6.19l-1.27-1.03
		c-0.06-0.06-0.15-0.1-0.23-0.13c-0.08-0.02-0.17-0.04-0.25-0.04c-0.06,0-0.11,0.01-0.16,0.02c-0.06,0.01-0.11,0.03-0.16,0.06
		c-0.13,0.06-0.24,0.16-0.32,0.28c-0.07,0.12-0.12,0.26-0.12,0.4v6.19c0,0.12,0.03,0.22,0.07,0.32c0.05,0.1,0.12,0.19,0.21,0.26
		l7.62,6.35c0.06,0.06,0.14,0.11,0.23,0.13c0.08,0.03,0.17,0.05,0.26,0.05c0.05,0,0.11,0,0.16-0.02c0.05-0.01,0.11-0.03,0.15-0.06
		c0.14-0.06,0.24-0.16,0.32-0.28c0.08-0.12,0.12-0.26,0.12-0.41v-6.15c0-0.11-0.03-0.22-0.07-0.32c-0.05-0.1-0.12-0.19-0.2-0.26
		L65,30.87v-6.13l2.34,1.97c0.07,0.06,0.15,0.1,0.23,0.14c0.08,0.02,0.17,0.04,0.26,0.04c0.04,0,0.11-0.01,0.16-0.02
		c0.05-0.01,0.1-0.02,0.16-0.05c0.13-0.06,0.24-0.16,0.32-0.28c0.08-0.12,0.12-0.26,0.12-0.41v-6.68
		C68.58,19.33,68.56,19.21,68.51,19.12z"/>
	<path class="st1" d="M84.87,17.92c0.08-0.07,0.16-0.16,0.21-0.26c0.04-0.1,0.07-0.21,0.07-0.33v-6.68c0-0.15-0.04-0.29-0.12-0.41
		c-0.08-0.12-0.19-0.22-0.33-0.28c-0.05-0.03-0.1-0.04-0.16-0.05c-0.05-0.02-0.11-0.02-0.16-0.02c-0.09,0-0.18,0.02-0.25,0.05
		c-0.09,0.03-0.16,0.08-0.24,0.13L73.4,18.9c-0.08,0.08-0.15,0.16-0.2,0.26c-0.05,0.11-0.07,0.21-0.07,0.32v20.92
		c0,0.14,0.04,0.29,0.12,0.41c0.08,0.12,0.19,0.22,0.33,0.28c0.05,0.02,0.1,0.04,0.16,0.05c0.05,0.02,0.1,0.02,0.16,0.02
		c0.08,0,0.17-0.02,0.26-0.05c0.08-0.02,0.16-0.07,0.23-0.13l10.49-8.81c0.08-0.07,0.15-0.16,0.2-0.26c0.04-0.1,0.07-0.21,0.07-0.32
		v-6.23c0-0.15-0.04-0.29-0.12-0.41c-0.08-0.12-0.19-0.22-0.33-0.28c-0.05-0.01-0.1-0.04-0.16-0.05c-0.05-0.01-0.11-0.01-0.16-0.01
		c-0.09,0-0.18,0.01-0.25,0.04c-0.09,0.03-0.16,0.07-0.24,0.14l-5.78,4.85V23.6L84.87,17.92z"/>
</g>
</svg>
